<svg width="140" height="145" viewBox="0 0 140 145" fill="none" xmlns="http://www.w3.org/2000/svg">
<g clip-path="url(#clip0_372_159)">
<path d="M132.674 135.115C132.674 140.574 102.974 145 66.3369 145C29.6996 145 0 140.574 0 135.115C0 131.251 14.8873 127.903 36.5837 126.279C45.5306 125.607 55.6395 125.231 66.3369 125.231C70.7343 125.231 75.0313 125.294 79.1869 125.416C109.674 126.308 132.674 130.311 132.674 135.115Z" fill="#2C3333"/>
<path opacity="0.1" d="M57.7773 137.135C71.8411 137.135 83.2421 135.755 83.2421 134.052C83.2421 132.35 71.8411 130.97 57.7773 130.97C43.7135 130.97 32.3125 132.35 32.3125 134.052C32.3125 135.755 43.7135 137.135 57.7773 137.135Z" fill="black"/>
<path d="M57.6701 136.285C70.9657 136.285 81.7439 124.864 81.7439 110.776C81.7439 96.6873 70.9657 85.2666 57.6701 85.2666C44.3744 85.2666 33.5962 96.6873 33.5962 110.776C33.5962 124.864 44.3744 136.285 57.6701 136.285Z" fill="white"/>
<path d="M65.2669 125.868H50.2876V139.473H65.2669V125.868Z" fill="white"/>
<path d="M84.8472 129.163L83.9912 133.84L89.5549 134.69L93.1928 132.565L92.9788 129.163H84.8472Z" fill="white"/>
<path d="M56.8144 41.3699C56.8144 41.3699 56.3864 46.2591 55.3165 46.4717C54.2465 46.6842 57.6704 55.1872 57.6704 55.1872H62.8061L66.8719 54.1243L64.946 49.4477C64.946 49.4477 62.3782 46.0465 64.3041 43.283C66.23 40.5196 56.8144 41.3699 56.8144 41.3699Z" fill="#A0616A"/>
<path opacity="0.1" d="M56.8144 41.3699C56.8144 41.3699 56.3864 46.2591 55.3165 46.4717C54.2465 46.6842 57.6704 55.1872 57.6704 55.1872H62.8061L66.8719 54.1243L64.946 49.4477C64.946 49.4477 62.3782 46.0465 64.3041 43.283C66.23 40.5196 56.8144 41.3699 56.8144 41.3699Z" fill="black"/>
<path d="M46.1146 78.783C46.1146 78.783 40.5509 89.4118 45.0447 91.5375C49.5385 93.6633 50.6084 93.4507 50.6084 94.0884C50.6084 94.7261 49.7524 94.5136 50.1804 95.5764C50.6084 96.6393 49.3245 100.891 50.6084 103.442C51.8923 105.993 51.4644 107.906 51.4644 107.906C51.4644 107.906 51.4644 108.118 51.8923 108.969C52.3203 109.819 52.5343 110.457 52.3203 110.882C52.1063 111.307 50.8224 114.07 52.1063 114.708C53.3903 115.346 60.024 115.771 60.6659 114.708C61.3079 113.645 60.024 113.008 60.6659 112.37C61.3079 111.732 61.7359 111.52 61.3079 111.094C60.8799 110.669 60.4519 105.355 60.4519 105.355C60.4519 105.355 61.5219 99.1902 61.0939 98.3399C60.6659 97.4896 60.024 96.6393 60.4519 96.0016C60.8799 95.3639 61.3079 95.5764 61.5219 94.7261C61.7359 93.8758 62.1639 91.9627 62.1639 91.9627L64.5177 91.7501L70.0815 92.813C70.0815 92.813 76.2872 99.6153 83.1349 101.741C83.1349 101.741 85.0608 103.654 85.7027 103.654C86.3447 103.654 86.3447 103.654 86.1307 104.079C85.9167 104.505 85.2748 104.505 85.7027 104.93C86.1307 105.355 86.7727 104.717 86.3447 105.355C85.9167 105.993 85.4888 105.993 85.9167 106.418C86.3447 106.843 85.7027 109.181 85.7027 109.394C85.7027 109.606 83.7768 129.588 84.4188 130.014C85.0608 130.439 94.0483 131.714 94.6903 130.014C95.3323 128.313 94.2623 126.187 94.2623 126.187C94.2623 126.187 97.4722 100.678 96.6162 98.9776C95.7603 97.277 92.7644 89.6243 76.7152 84.7351C76.7152 84.7351 72.2214 83.8848 72.2214 83.2471C72.2214 82.6094 71.7934 78.5705 70.9374 78.3579C70.0815 78.1453 65.1597 77.9327 65.1597 77.9327L58.954 79.8459L50.3944 78.3579L46.1146 78.783Z" fill="#2F2E41"/>
<path d="M53.6045 114.496L52.5346 118.322C52.5346 118.322 51.6786 124.487 52.7486 125.975C53.589 127.143 55.0896 128.574 57.8725 128.826C58.6524 128.897 59.4334 128.701 60.0862 128.271C60.7391 127.842 61.2248 127.203 61.4629 126.462C61.4948 126.374 61.5148 126.281 61.5222 126.187C61.5222 125.762 60.8802 120.66 60.8802 120.66L59.8103 115.346L59.5963 113.858L53.6045 114.496Z" fill="#2F2E41"/>
<path d="M84.8468 132.777C84.8468 132.777 83.7769 131.714 83.5629 132.777C83.3489 133.84 82.4929 138.304 83.9908 138.516C85.4888 138.729 99.8261 140.855 101.324 140.004C102.822 139.154 105.604 137.879 103.892 137.241C102.18 136.603 97.2582 134.69 97.2582 134.69C97.2582 134.69 94.4763 131.076 94.0484 130.864C93.6204 130.651 91.2665 131.076 90.1966 131.927C89.1266 132.777 84.8468 132.777 84.8468 132.777Z" fill="#2F2E41"/>
<path d="M61.9501 45.8339C65.6138 45.8339 68.5838 42.8836 68.5838 39.2441C68.5838 35.6047 65.6138 32.6543 61.9501 32.6543C58.2864 32.6543 55.3164 35.6047 55.3164 39.2441C55.3164 42.8836 58.2864 45.8339 61.9501 45.8339Z" fill="#A0616A"/>
<path d="M61.3079 54.1243L58.74 51.3608L55.8937 45.8339C55.8937 45.8339 53.8183 45.1962 53.3903 46.2591C52.9623 47.3219 45.2587 50.7231 45.2587 50.7231C45.2587 50.7231 47.1846 68.5794 46.3286 70.28C45.4727 71.9806 43.9747 78.783 45.2587 79.4207C46.5426 80.0584 52.5343 79.4207 54.4602 80.271C56.3861 81.1213 61.9499 81.1213 63.4478 80.0584C64.9457 78.9955 65.3737 78.1452 66.8716 78.783C68.1469 79.3259 71.1281 60.7649 71.9863 55.2337C72.0587 54.7692 71.9986 54.2938 71.813 53.8614C71.6274 53.429 71.3236 53.0568 70.9361 52.7871C69.016 51.4492 65.5579 49.1436 64.9457 49.4477C64.0898 49.8728 61.3079 54.1243 61.3079 54.1243Z" fill="white"/>
<path d="M70.5099 53.274C71.0124 53.3988 71.4644 53.6734 71.8053 54.0608C72.1461 54.4483 72.3595 54.93 72.4167 55.4414L74.1477 70.9177C74.1477 70.9177 69.8679 80.0584 67.728 73.8938C65.5881 67.7291 70.5099 53.274 70.5099 53.274Z" fill="white"/>
<path d="M70.0815 72.4058L74.7892 71.1304C74.7892 71.1304 75.6452 77.0825 76.5012 77.0825C77.3571 77.0825 73.5053 80.4837 71.5794 80.0585C69.6535 79.6334 66.8716 78.1453 66.6576 77.0825C66.4436 76.0196 68.5835 71.5555 68.5835 71.5555L70.0815 72.4058Z" fill="white"/>
<path d="M56.9423 42.0869C57.3934 41.0988 57.315 39.9463 57.688 38.9266C57.8876 38.3806 58.2117 37.8879 58.6348 37.4869C59.0579 37.0859 59.5687 36.7875 60.1271 36.615C60.6855 36.4425 61.2765 36.4006 61.8539 36.4926C62.4313 36.5845 62.9795 36.8079 63.4557 37.1451C63.9354 37.4849 64.4163 37.9623 65.0019 37.8974C65.6324 37.8276 66.1949 37.1288 66.7746 37.3849C67.4172 37.6687 67.2436 38.8127 67.8946 39.0769C68.2373 39.216 68.6422 39.0018 68.8398 38.6909C69.0127 38.3642 69.1069 38.0021 69.115 37.6331C69.2048 36.7265 69.286 35.7669 68.8902 34.9451C68.7237 34.6666 68.5786 34.3759 68.4561 34.0757C68.3869 33.7953 68.3591 33.5064 68.3736 33.2181C68.37 32.1524 68.2917 31.0409 67.7518 30.12C67.1528 29.0981 66.0454 28.4447 64.8901 28.1596C63.7348 27.8745 62.5244 27.9182 61.3383 28.0179C59.3774 28.1828 57.3325 28.5363 55.7877 29.7472C55.5777 29.8996 55.397 30.0882 55.2541 30.3041C55.1185 30.5605 55.0227 30.8358 54.9699 31.1207C54.6359 32.4718 54.1351 33.7768 53.4789 35.0059C53.1633 35.527 52.9053 36.0805 52.7095 36.6567C52.5457 37.2422 52.5568 37.9095 52.8997 38.4127C53.1789 38.8224 53.6253 39.0408 53.976 39.3758C54.3235 39.7077 54.486 40.346 54.871 40.5974C55.207 40.8168 55.6095 40.6619 55.9522 40.8945C56.3923 41.193 56.424 41.8477 56.9423 42.0869Z" fill="#2F2E41"/>
<path d="M62.3779 57.313L63.0199 56.0376C63.0199 56.0376 72.4355 58.8011 74.3614 61.352C74.3614 61.352 79.0691 58.3759 81.637 58.8011L84.2049 59.2262L76.2873 66.2412L66.2297 65.3909L62.3779 57.313Z" fill="#F2F2F2"/>
<path d="M61.9499 56.0376L53.1763 68.1543L65.8017 74.319C65.8017 74.319 66.982 74.9567 67.8898 74.319L76.2872 70.4927L84.2048 59.2262L76.2872 63.2651C76.2872 63.2651 75.4312 61.5645 73.7193 62.4148L61.9499 56.0376Z" fill="#2F2E41"/>
<path d="M75.4313 77.5076L77.1432 73.0435C77.1432 73.0435 80.995 68.1543 78.8551 65.8159C76.7152 63.4776 74.3613 72.6183 74.3613 72.6183L75.4313 77.5076Z" fill="#A0616A"/>
<path d="M55.6797 76.7952L59.4151 73.7868C59.4151 73.7868 65.2164 71.4772 64.5463 68.388C63.8762 65.2987 57.2235 72.0326 57.2235 72.0326L55.6797 76.7952Z" fill="#A0616A"/>
<path opacity="0.1" d="M46.4357 55.2935H46.2217C46.2217 55.2935 42.9049 51.3609 42.2629 56.6752C41.6209 61.9896 39.481 79.6333 45.0448 80.271C50.6085 80.9087 54.5673 77.6138 54.5673 77.6138C54.5673 77.6138 58.6331 71.4492 57.1352 71.4492C56.4104 71.4492 54.4393 71.1258 52.6414 71.2366C50.7235 71.3548 49.0001 71.8915 49.1106 71.3429C49.3246 70.28 52.4274 56.7815 46.4357 55.2935Z" fill="black"/>
<path d="M46.1149 51.1483L45.2589 50.7231C45.2589 50.7231 41.8351 51.3609 41.1931 56.6752C40.5511 61.9896 38.4112 79.6333 43.975 80.271C49.5387 80.9087 57.0283 79.4207 57.0283 79.4207C57.0283 79.4207 58.5263 71.3429 57.0283 71.3429C55.5304 71.3429 47.8268 72.4058 48.0408 71.3429C48.2548 70.28 52.1066 52.6363 46.1149 51.1483Z" fill="white"/>
<path d="M72.3286 75.0631L74.6883 71.4703L76.1804 77.4014L72.3286 79.102V75.0631Z" fill="white"/>
</g>
<defs>
<clipPath id="clip0_372_159">
<rect width="140" height="145" fill="white"/>
</clipPath>
</defs>
</svg>
